<svg width="14" height="15" viewBox="0 0 14 15" fill="none" xmlns="http://www.w3.org/2000/svg">
<path d="M11.6667 2.16665H10.3334V1.49998C10.3334 1.32317 10.2631 1.1536 10.1381 1.02858C10.0131 0.903551 9.84352 0.833313 9.66671 0.833313C9.4899 0.833313 9.32033 0.903551 9.1953 1.02858C9.07028 1.1536 9.00004 1.32317 9.00004 1.49998V2.16665H5.00004V1.49998C5.00004 1.32317 4.9298 1.1536 4.80478 1.02858C4.67975 0.903551 4.51018 0.833313 4.33337 0.833313C4.15656 0.833313 3.98699 0.903551 3.86197 1.02858C3.73695 1.1536 3.66671 1.32317 3.66671 1.49998V2.16665H2.33337C1.80294 2.16665 1.29423 2.37736 0.91916 2.75243C0.544088 3.12751 0.333374 3.63621 0.333374 4.16665V12.1666C0.333374 12.6971 0.544088 13.2058 0.91916 13.5809C1.29423 13.9559 1.80294 14.1666 2.33337 14.1666H11.6667C12.1971 14.1666 12.7058 13.9559 13.0809 13.5809C13.456 13.2058 13.6667 12.6971 13.6667 12.1666V4.16665C13.6667 3.63621 13.456 3.12751 13.0809 2.75243C12.7058 2.37736 12.1971 2.16665 11.6667 2.16665ZM12.3334 12.1666C12.3334 12.3435 12.2631 12.513 12.1381 12.6381C12.0131 12.7631 11.8435 12.8333 11.6667 12.8333H2.33337C2.15656 12.8333 1.98699 12.7631 1.86197 12.6381C1.73695 12.513 1.66671 12.3435 1.66671 12.1666V7.49998H12.3334V12.1666ZM12.3334 6.16665H1.66671V4.16665C1.66671 3.98984 1.73695 3.82027 1.86197 3.69524C1.98699 3.57022 2.15656 3.49998 2.33337 3.49998H3.66671V4.16665C3.66671 4.34346 3.73695 4.51303 3.86197 4.63805C3.98699 4.76307 4.15656 4.83331 4.33337 4.83331C4.51018 4.83331 4.67975 4.76307 4.80478 4.63805C4.9298 4.51303 5.00004 4.34346 5.00004 4.16665V3.49998H9.00004V4.16665C9.00004 4.34346 9.07028 4.51303 9.1953 4.63805C9.32033 4.76307 9.4899 4.83331 9.66671 4.83331C9.84352 4.83331 10.0131 4.76307 10.1381 4.63805C10.2631 4.51303 10.3334 4.34346 10.3334 4.16665V3.49998H11.6667C11.8435 3.49998 12.0131 3.57022 12.1381 3.69524C12.2631 3.82027 12.3334 3.98984 12.3334 4.16665V6.16665Z" fill="#F24E1E"/>
</svg>
