<svg width="16" height="12" viewBox="0 0 16 12" fill="none" xmlns="http://www.w3.org/2000/svg">
<path d="M10.9846 5.85202C12.352 5.85202 13.4663 4.63402 13.4663 3.15202C13.4663 1.68688 12.3577 0.526306 10.9846 0.526306C9.62286 0.526306 8.50257 1.70402 8.50257 3.16345C8.50829 4.63973 9.62286 5.85202 10.9846 5.85202ZM4.36629 5.97831C5.54971 5.97831 6.52057 4.91545 6.52057 3.61145C6.52057 2.33602 5.56114 1.30773 4.36629 1.30773C3.18286 1.30773 2.20629 2.35345 2.212 3.62288C2.21771 4.92145 3.18286 5.97831 4.36629 5.97831ZM10.9846 4.98459C10.1457 4.98459 9.42743 4.18031 9.42743 3.16345C9.42743 2.16345 10.1343 1.39402 10.9846 1.39402C11.8406 1.39402 12.5414 2.15231 12.5414 3.15173C12.5414 4.16888 11.8349 4.98459 10.9846 4.98459ZM4.36629 5.12231C3.66543 5.12231 3.068 4.45031 3.068 3.62288C3.068 2.81288 3.65943 2.16373 4.36629 2.16373C5.09 2.16373 5.67029 2.80145 5.67029 3.61145C5.67029 4.45031 5.07286 5.12231 4.36629 5.12231ZM1.172 11.2466H5.682C5.406 11.0914 5.19343 10.7466 5.23371 10.3963H1.02857C0.913714 10.3963 0.856286 10.3506 0.856286 10.2412C0.856286 8.81659 2.482 7.48373 4.36086 7.48373C5.08457 7.48373 5.73371 7.65602 6.29114 7.98345C6.47593 7.74924 6.69474 7.54402 6.94029 7.37459C6.19914 6.88602 5.30886 6.63345 4.36086 6.63345C1.95343 6.63345 0 8.37973 0 10.2929C0 10.9306 0.390572 11.2466 1.172 11.2466ZM7.37657 11.2466H14.5926C15.546 11.2466 16 10.9594 16 10.3274C16 8.82231 14.0983 6.64459 10.9846 6.64459C7.86486 6.64459 5.96343 8.82231 5.96343 10.3274C5.96343 10.9594 6.41714 11.2466 7.37657 11.2466ZM7.10086 10.3792C6.95143 10.3792 6.88829 10.3392 6.88829 10.2183C6.88829 9.27602 8.34743 7.51259 10.9846 7.51259C13.616 7.51259 15.0749 9.27602 15.0749 10.2183C15.0749 10.3389 15.0177 10.3792 14.868 10.3792H7.10086Z" fill="#F24E1E"/>
</svg>
